<?xml version="1.0" encoding="UTF-8"?>
<svg xmlns="http://www.w3.org/2000/svg" xmlns:xlink="http://www.w3.org/1999/xlink" width="854" height="480" viewBox="0 0 854 480">
<defs>
<g>
<g id="glyph-0-0">
<path d="M 4.933594 -8.976562 C 5.417969 -8.976562 5.910156 -8.90625 6.417969 -8.761719 C 6.925781 -8.621094 7.210938 -8.546875 7.273438 -8.546875 C 7.398438 -8.546875 7.515625 -8.582031 7.628906 -8.652344 C 7.742188 -8.722656 7.820312 -8.832031 7.863281 -8.976562 L 8.144531 -8.976562 L 8.269531 -5.984375 L 7.960938 -5.984375 C 7.785156 -6.578125 7.550781 -7.058594 7.265625 -7.421875 C 6.71875 -8.109375 5.984375 -8.449219 5.058594 -8.449219 C 4.125 -8.449219 3.363281 -8.082031 2.769531 -7.34375 C 2.175781 -6.605469 1.882812 -5.589844 1.882812 -4.296875 C 1.882812 -3.109375 2.191406 -2.15625 2.816406 -1.449219 C 3.4375 -0.738281 4.226562 -0.382812 5.183594 -0.382812 C 5.871094 -0.382812 6.507812 -0.550781 7.089844 -0.878906 C 7.425781 -1.066406 7.789062 -1.347656 8.191406 -1.726562 L 8.4375 -1.476562 C 8.140625 -1.105469 7.777344 -0.777344 7.335938 -0.496094 C 6.589844 -0.0195312 5.78125 0.222656 4.910156 0.222656 C 3.476562 0.222656 2.339844 -0.238281 1.496094 -1.152344 C 0.71875 -2 0.332031 -3.054688 0.332031 -4.324219 C 0.332031 -5.621094 0.742188 -6.710938 1.5625 -7.589844 C 2.425781 -8.515625 3.550781 -8.976562 4.933594 -8.976562 Z "/>
</g>
<g id="glyph-0-1">
<path d="M 6.238281 -2.960938 C 6.238281 -2.167969 5.980469 -1.453125 5.472656 -0.8125 C 4.960938 -0.175781 4.300781 0.144531 3.484375 0.144531 C 2.71875 0.144531 2.023438 -0.214844 1.394531 -0.929688 C 0.769531 -1.648438 0.457031 -2.601562 0.457031 -3.789062 C 0.457031 -5.320312 1.0625 -6.636719 2.277344 -7.734375 C 3.363281 -8.65625 4.582031 -9.113281 5.9375 -9.113281 L 5.96875 -8.898438 C 5.425781 -8.800781 4.960938 -8.664062 4.566406 -8.492188 C 4.175781 -8.320312 3.824219 -8.082031 3.515625 -7.773438 C 3.199219 -7.460938 2.902344 -7.0625 2.625 -6.582031 C 2.347656 -6.101562 2.15625 -5.621094 2.050781 -5.148438 C 2.320312 -5.3125 2.550781 -5.4375 2.746094 -5.515625 C 3.09375 -5.652344 3.445312 -5.722656 3.796875 -5.722656 C 4.484375 -5.722656 5.066406 -5.484375 5.535156 -5.007812 C 6.003906 -4.53125 6.238281 -3.847656 6.238281 -2.960938 Z M 5.046875 -2.460938 C 5.046875 -3.039062 4.953125 -3.550781 4.773438 -3.996094 C 4.46875 -4.742188 3.953125 -5.117188 3.222656 -5.117188 C 2.550781 -5.117188 2.101562 -4.917969 1.882812 -4.519531 C 1.75 -4.285156 1.6875 -3.894531 1.6875 -3.347656 C 1.6875 -2.640625 1.835938 -1.945312 2.136719 -1.269531 C 2.441406 -0.59375 2.917969 -0.253906 3.566406 -0.253906 C 4.082031 -0.253906 4.460938 -0.472656 4.695312 -0.914062 C 4.929688 -1.355469 5.046875 -1.871094 5.046875 -2.460938 Z "/>
</g>
<g id="glyph-0-2">
<path d="M 0.214844 -0.242188 C 0.734375 -0.296875 1.0625 -0.394531 1.191406 -0.53125 C 1.320312 -0.667969 1.386719 -1.023438 1.386719 -1.601562 L 1.386719 -7.375 C 1.386719 -7.851562 1.3125 -8.164062 1.167969 -8.308594 C 1.023438 -8.449219 0.707031 -8.539062 0.214844 -8.574219 L 0.214844 -8.820312 L 3.917969 -8.820312 L 3.917969 -8.574219 C 3.429688 -8.539062 3.109375 -8.449219 2.960938 -8.308594 C 2.8125 -8.164062 2.742188 -7.855469 2.742188 -7.375 L 2.742188 -4.777344 L 6.785156 -4.777344 L 6.785156 -7.375 C 6.785156 -7.851562 6.710938 -8.164062 6.570312 -8.308594 C 6.425781 -8.449219 6.105469 -8.539062 5.613281 -8.574219 L 5.613281 -8.820312 L 9.316406 -8.820312 L 9.316406 -8.574219 C 8.824219 -8.539062 8.507812 -8.449219 8.363281 -8.308594 C 8.21875 -8.164062 8.144531 -7.855469 8.144531 -7.375 L 8.144531 -1.445312 C 8.144531 -0.960938 8.21875 -0.648438 8.363281 -0.511719 C 8.507812 -0.375 8.824219 -0.285156 9.316406 -0.242188 L 9.316406 0 L 5.613281 0 L 5.613281 -0.242188 C 6.136719 -0.292969 6.464844 -0.386719 6.589844 -0.527344 C 6.71875 -0.667969 6.785156 -1.023438 6.785156 -1.601562 L 6.785156 -4.191406 L 2.742188 -4.191406 L 2.742188 -1.445312 C 2.742188 -0.960938 2.816406 -0.648438 2.960938 -0.507812 C 3.109375 -0.367188 3.429688 -0.28125 3.917969 -0.242188 L 3.917969 0 L 0.214844 0 Z "/>
</g>
<g id="glyph-0-3">
<path d="M 0.996094 -1.191406 C 1.242188 -1.191406 1.566406 -1.050781 1.96875 -0.769531 C 2.371094 -0.492188 2.679688 -0.351562 2.898438 -0.351562 C 3.398438 -0.351562 3.832031 -0.570312 4.207031 -1.011719 C 4.578125 -1.453125 4.765625 -1.996094 4.765625 -2.636719 C 4.765625 -3.761719 4.167969 -4.570312 2.96875 -5.066406 C 2.304688 -5.339844 1.6875 -5.476562 1.113281 -5.476562 C 1.019531 -5.476562 0.957031 -5.476562 0.933594 -5.484375 C 0.910156 -5.492188 0.882812 -5.515625 0.847656 -5.554688 C 0.855469 -5.589844 0.863281 -5.617188 0.867188 -5.640625 C 0.875 -5.664062 0.882812 -5.6875 0.890625 -5.710938 L 2.3125 -8.820312 L 5.105469 -8.820312 C 5.242188 -8.820312 5.351562 -8.84375 5.425781 -8.894531 C 5.503906 -8.941406 5.601562 -9.03125 5.722656 -9.160156 L 5.828125 -9.070312 L 5.320312 -7.863281 C 5.300781 -7.824219 5.253906 -7.800781 5.175781 -7.789062 C 5.097656 -7.777344 5.011719 -7.773438 4.921875 -7.773438 L 2.402344 -7.773438 L 1.847656 -6.632812 C 2.558594 -6.511719 3.082031 -6.398438 3.410156 -6.289062 C 3.953125 -6.105469 4.40625 -5.835938 4.773438 -5.480469 C 5.085938 -5.171875 5.320312 -4.828125 5.480469 -4.441406 C 5.640625 -4.058594 5.722656 -3.652344 5.722656 -3.222656 C 5.722656 -2.261719 5.378906 -1.460938 4.695312 -0.820312 C 4.011719 -0.179688 3.148438 0.144531 2.101562 0.144531 C 1.675781 0.144531 1.335938 0.101562 1.074219 0.0195312 C 0.640625 -0.113281 0.421875 -0.355469 0.421875 -0.703125 C 0.421875 -0.832031 0.46875 -0.945312 0.5625 -1.042969 C 0.65625 -1.140625 0.800781 -1.191406 0.996094 -1.191406 Z "/>
</g>
<g id="glyph-0-4">
<path d="M 1.90625 -4.40625 C 1.90625 -3.003906 2.183594 -1.96875 2.734375 -1.296875 C 3.285156 -0.628906 3.960938 -0.292969 4.765625 -0.292969 C 5.550781 -0.292969 6.222656 -0.621094 6.78125 -1.273438 C 7.339844 -1.925781 7.617188 -2.972656 7.617188 -4.40625 C 7.617188 -5.859375 7.335938 -6.910156 6.769531 -7.558594 C 6.207031 -8.207031 5.539062 -8.527344 4.765625 -8.527344 C 3.96875 -8.527344 3.289062 -8.191406 2.738281 -7.523438 C 2.183594 -6.851562 1.90625 -5.8125 1.90625 -4.40625 Z M 0.398438 -4.40625 C 0.398438 -5.832031 0.84375 -6.972656 1.738281 -7.832031 C 2.558594 -8.617188 3.566406 -9.011719 4.765625 -9.011719 C 5.96875 -9.011719 6.980469 -8.617188 7.800781 -7.824219 C 8.691406 -6.96875 9.132812 -5.832031 9.132812 -4.40625 C 9.132812 -2.960938 8.675781 -1.8125 7.753906 -0.957031 C 6.929688 -0.191406 5.933594 0.1875 4.765625 0.1875 C 3.515625 0.1875 2.476562 -0.234375 1.652344 -1.082031 C 0.816406 -1.945312 0.398438 -3.054688 0.398438 -4.40625 Z "/>
</g>
</g>
</defs>
<g fill="rgb(100%, 100%, 100%)" fill-opacity="1">
<use xlink:href="#glyph-0-0" x="30" y="30"/>
<use xlink:href="#glyph-0-1" x="39" y="30"/>
<use xlink:href="#glyph-0-2" x="46" y="30"/>
<use xlink:href="#glyph-0-3" x="56" y="30"/>
<use xlink:href="#glyph-0-0" x="63" y="30"/>
<use xlink:href="#glyph-0-2" x="72" y="30"/>
<use xlink:href="#glyph-0-4" x="82" y="30"/>
</g>
</svg>
